<svg version="1.0" xmlns="http://www.w3.org/2000/svg"
  width="96.000000pt" height="96.000000pt" viewBox="0 0 96.000000 96.000000"
  preserveAspectRatio="xMidYMid meet">
  <g transform="translate(0.000000,96.000000) scale(0.100000,-0.100000)"
  fill="#ffffff" stroke="none">
    <path d="M361 944 c-253 -68 -410 -331 -346 -577 47 -180 193 -320 372 -358
    55 -11 198 -7 211 5 3 4 -3 12 -13 20 -13 9 -37 12 -79 9 -164 -14 -333 82
    -413 234 -176 329 131 722 490 628 253 -66 396 -325 312 -566 -11 -32 -13 -53
    -6 -70 9 -23 10 -22 31 25 76 167 37 377 -95 515 -120 126 -302 179 -464 135z"/>
    <path d="M229 685 c-29 -16 -55 -66 -45 -90 9 -25 25 -17 40 19 15 37 43 51
    77 41 11 -4 27 -22 35 -41 15 -36 31 -44 40 -19 10 25 -16 75 -47 90 -35 19
    -66 18 -100 0z"/>
    <path d="M629 685 c-29 -16 -55 -66 -45 -90 9 -25 25 -17 40 19 8 19 24 37 35
    41 34 10 62 -4 77 -41 15 -36 31 -44 40 -19 10 25 -16 75 -47 90 -35 19 -66
    18 -100 0z"/>
    <path d="M204 405 c-9 -21 4 -83 26 -125 37 -72 124 -128 216 -137 49 -5 52
    -4 48 14 -4 16 -17 22 -53 27 -26 3 -56 12 -66 20 -18 13 -17 14 8 31 15 10
    47 20 71 22 32 4 46 10 49 24 4 16 0 19 -27 19 -46 0 -96 -19 -127 -46 l-25
    -24 -27 27 c-24 26 -57 90 -57 113 0 6 59 10 169 10 131 0 177 4 206 16 24 10
    58 14 91 12 29 -2 50 0 47 5 -2 4 -126 7 -274 7 -231 0 -270 -2 -275 -15z"/>
    <path d="M646 360 c-42 -13 -95 -68 -107 -112 -18 -68 19 -151 81 -183 42 -22
    116 -19 156 6 100 61 99 212 -1 270 -39 23 -92 30 -129 19z m62 -72 c7 -7 12
    -22 12 -34 0 -17 7 -23 28 -26 38 -4 38 -42 0 -46 -21 -3 -27 -9 -30 -30 -4
    -38 -42 -38 -46 1 -3 21 -9 27 -26 27 -27 0 -51 24 -41 40 3 5 19 10 36 10 25
    0 29 4 29 28 0 41 15 53 38 30z"/>
  </g>
</svg>
