<?xml version="1.0" standalone="no"?>
<!DOCTYPE svg PUBLIC "-//W3C//DTD SVG 20010904//EN"
 "http://www.w3.org/TR/2001/REC-SVG-20010904/DTD/svg10.dtd">
<svg version="1.0" xmlns="http://www.w3.org/2000/svg"
 width="512.000000pt" height="512.000000pt" viewBox="0 0 512.000000 512.000000"
 preserveAspectRatio="xMidYMid meet">

<g transform="translate(0.000000,512.000000) scale(0.100000,-0.100000)"
fill="#000000" stroke="none">
<path d="M2412 5109 c-378 -49 -708 -287 -878 -634 -57 -116 -104 -275 -104
-352 0 -122 97 -215 225 -216 111 -1 201 66 225 167 69 290 220 465 475 552
69 24 96 28 200 28 176 1 282 -34 422 -141 118 -89 211 -232 249 -383 25 -97
16 -282 -18 -372 -39 -103 -86 -175 -168 -258 -87 -87 -172 -140 -285 -176
-66 -22 -107 -28 -233 -33 -207 -8 -192 15 -192 -288 0 -274 5 -298 70 -363
144 -144 368 -56 389 154 l6 58 85 25 c239 69 469 232 613 434 66 93 143 259
174 376 25 90 27 114 27 288 1 178 -1 196 -27 289 -55 199 -157 375 -297 516
-252 253 -606 375 -958 329z m284 -140 c145 -20 301 -80 433 -167 31 -20 97
-77 146 -127 128 -129 211 -276 261 -460 30 -110 27 -380 -4 -495 -49 -179
-135 -325 -271 -460 -137 -137 -298 -225 -486 -265 -114 -25 -125 -37 -125
-143 0 -79 -2 -85 -29 -113 -40 -39 -82 -39 -122 0 l-29 29 0 191 0 191 74 0
c379 0 723 267 816 634 27 108 27 270 0 386 -56 234 -216 431 -435 539 -137
68 -211 85 -365 85 -142 0 -221 -16 -337 -69 -238 -109 -400 -304 -464 -560
-17 -67 -27 -90 -47 -103 -37 -24 -87 -20 -118 8 -24 23 -26 30 -20 80 11 108
77 274 159 395 52 77 175 200 252 252 218 147 465 206 711 172z"/>
<path d="M2520 2400 c-46 -8 -89 -32 -124 -66 -51 -52 -61 -81 -61 -185 0 -89
2 -99 30 -144 19 -31 49 -61 79 -80 42 -25 59 -30 116 -30 57 0 74 5 116 30
90 56 129 158 110 289 -18 119 -146 209 -266 186z m85 -146 c48 -19 62 -143
21 -191 -19 -22 -32 -28 -66 -28 -59 0 -90 37 -90 106 0 51 20 103 42 112 19
8 74 8 93 1z"/>
<path d="M1865 1797 c-75 -80 -84 -82 -380 -102 -508 -35 -711 -101 -922 -299
-131 -124 -227 -284 -278 -466 -17 -57 -19 -115 -23 -477 -3 -405 -3 -412 17
-432 l21 -21 2260 0 c2247 0 2260 0 2280 20 19 19 20 33 20 399 0 416 -4 460
-60 612 -47 131 -119 239 -230 349 -114 113 -218 178 -357 226 -124 41 -236
59 -493 79 -382 30 -416 40 -512 154 -10 12 -29 21 -43 21 -15 0 -154 -71
-315 -160 l-290 -160 -290 160 c-183 101 -299 160 -317 160 -21 0 -43 -16 -88
-63z m328 -214 c117 -64 218 -122 225 -128 12 -10 -23 -44 -187 -186 -111 -96
-205 -175 -209 -176 -4 -1 -100 102 -215 229 -147 164 -204 234 -195 240 7 4
38 8 70 8 96 0 228 54 277 114 8 9 15 16 18 16 2 0 99 -52 216 -117z m1085 26
c32 -11 84 -25 117 -31 33 -5 75 -13 93 -16 l33 -7 -208 -232 c-114 -127 -211
-231 -215 -230 -22 6 -408 351 -401 358 5 5 105 62 223 128 l214 119 44 -34
c24 -18 69 -43 100 -55z m-1583 -369 c169 -189 288 -313 303 -317 13 -3 33 -1
45 5 12 6 117 92 232 193 l210 182 5 -247 c5 -230 6 -249 24 -262 25 -18 67
-18 92 0 18 13 19 32 24 262 l5 247 222 -192 c169 -144 229 -191 249 -191 32
0 21 -10 328 330 126 140 239 265 250 276 21 21 23 22 160 8 232 -22 326 -48
470 -128 76 -43 190 -145 248 -224 22 -29 57 -90 78 -135 72 -150 74 -161 78
-554 l3 -353 -295 0 -295 0 -3 231 c-3 229 -3 231 -27 250 -28 23 -59 24 -89
3 -22 -15 -22 -19 -22 -250 l0 -234 -1430 0 -1430 0 0 234 c0 231 0 235 -22
250 -30 21 -61 20 -89 -3 -24 -19 -24 -21 -27 -250 l-3 -231 -295 0 -295 0 3
358 c4 398 6 409 85 566 96 191 274 346 477 416 76 26 299 63 416 68 34 2 44
-8 315 -308z"/>
<path d="M2533 670 c-36 -15 -43 -43 -43 -173 0 -116 1 -125 23 -145 30 -28
68 -28 95 1 20 21 22 34 22 149 0 105 -3 129 -17 146 -22 25 -51 33 -80 22z"/>
</g>
</svg>
